/* XPM */
static char *result[] = {
/* columns rows colors chars-per-pixel */
"30 40 2 1 ",
"  c #231815",
". c None",
/* pixels */
"..............................",
"..............................",
"..............................",
"..............................",
".....                    .....",
".....                    .....",
".....                    .....",
".....                    .....",
".....                    .....",
".....                    .....",
".....       ......       .....",
".....       ......       .....",
".....       ......       .....",
".....       ......       .....",
".....       ......       .....",
".....       ......       .....",
".....       ......       .....",
".....                    .....",
".....                    .....",
".....                    .....",
".....                    .....",
".....                    .....",
".....                    .....",
"..................       .....",
"..................       .....",
"..................       .....",
"..................       .....",
"..................       .....",
"..................       .....",
"..................       .....",
".....                    .....",
".....                    .....",
".....                    .....",
".....                    .....",
".....                    .....",
".....                    .....",
"..............................",
"..............................",
"..............................",
".............................."
};
